<svg width="14" height="14" viewBox="0 0 14 14" fill="none" xmlns="http://www.w3.org/2000/svg">
<path d="M10.5 7C10.4972 6.6931 10.3735 6.39969 10.1559 6.18333L7.65337 3.675C7.54408 3.56635 7.39623 3.50537 7.24212 3.50537C7.08802 3.50537 6.94017 3.56635 6.83087 3.675C6.7762 3.72923 6.7328 3.79375 6.70319 3.86483C6.67357 3.93591 6.65832 4.01216 6.65832 4.08917C6.65832 4.16617 6.67357 4.24242 6.70319 4.3135C6.7328 4.38459 6.7762 4.4491 6.83087 4.50333L8.75004 6.41666H2.91671C2.762 6.41666 2.61362 6.47812 2.50423 6.58752C2.39483 6.69691 2.33337 6.84529 2.33337 7C2.33337 7.15471 2.39483 7.30308 2.50423 7.41247C2.61362 7.52187 2.762 7.58333 2.91671 7.58333H8.75004L6.83087 9.50249C6.72103 9.61156 6.65901 9.7598 6.65847 9.9146C6.65792 10.0694 6.71889 10.2181 6.82796 10.3279C6.93703 10.4378 7.08527 10.4998 7.24006 10.5003C7.39486 10.5009 7.54353 10.4399 7.65337 10.3308L10.1559 7.82249C10.375 7.60471 10.4987 7.30892 10.5 7Z" fill="white"/>
</svg>
