<svg width="17" height="17" viewBox="0 0 17 17" fill="none" xmlns="http://www.w3.org/2000/svg">
<rect x="0.5" y="0.5" width="16" height="16" rx="8" fill="#419FD9"/>
<rect x="0.5" y="0.5" width="16" height="16" rx="8" fill="url(#paint0_linear_48_28291)"/>
<path d="M4.09579 8.32361C6.42222 7.28871 7.97355 6.60645 8.74975 6.27681C10.966 5.33563 11.4265 5.17213 11.7267 5.16668C11.7927 5.16555 11.9403 5.18225 12.0359 5.26147C12.1166 5.32836 12.1388 5.41871 12.1495 5.48213C12.1601 5.54555 12.1733 5.69001 12.1628 5.80289C12.0427 7.0913 11.5231 10.2179 11.2587 11.661C11.1468 12.2716 10.9265 12.4763 10.7133 12.4963C10.2499 12.5399 9.89795 12.1836 9.44909 11.8832C8.74671 11.4131 8.34992 11.1205 7.66814 10.6618C6.88023 10.1316 7.391 9.84024 7.84003 9.36406C7.95754 9.23944 9.99944 7.34314 10.039 7.17111C10.0439 7.1496 10.0485 7.0694 10.0018 7.02706C9.95517 6.98471 9.8863 6.99919 9.8366 7.01071C9.76615 7.02703 8.6441 7.78426 6.47044 9.28238C6.15195 9.50568 5.86347 9.61447 5.605 9.60877C5.32006 9.60249 4.77195 9.44428 4.36449 9.30904C3.86472 9.14317 3.46751 9.05548 3.5021 8.77378C3.52012 8.62705 3.71801 8.477 4.09579 8.32361Z" fill="white"/>
<defs>
<linearGradient id="paint0_linear_48_28291" x1="8.5" y1="0.5" x2="8.5" y2="16.3813" gradientUnits="userSpaceOnUse">
<stop stop-color="#2AABEE"/>
<stop offset="1" stop-color="#229ED9"/>
</linearGradient>
</defs>
</svg>
