<svg width="27" height="27" viewBox="0 0 27 27" fill="none" xmlns="http://www.w3.org/2000/svg">
<g clip-path="url(#clip0_48_28375)">
<path d="M1.63293 4.7084V21.8537C1.6286 22.5991 1.81604 23.3331 2.17724 23.9851C2.53844 24.6371 3.06127 25.1853 3.69549 25.5771C4.31451 25.9639 5.02261 26.1852 5.7518 26.2196C6.48099 26.2539 7.20677 26.1003 7.85944 25.7734L22.9791 17.1856C23.7 16.816 24.3044 16.2542 24.7256 15.5623C25.1467 14.8704 25.3681 14.0754 25.3652 13.2655C25.3623 12.4555 25.1352 11.6621 24.7091 10.9733C24.283 10.2844 23.6746 9.72691 22.9511 9.36253L7.9123 0.817902C7.25481 0.479202 6.52075 0.316671 5.78171 0.346161C5.04267 0.375648 4.3239 0.596151 3.69549 0.986162C3.06142 1.37779 2.5387 1.92583 2.17751 2.57766C1.81631 3.22949 1.62879 3.96322 1.63293 4.7084Z" fill="white"/>
</g>
<defs>
<clipPath id="clip0_48_28375">
<rect width="25.8863" height="25.8899" fill="white" transform="matrix(0 -1 -1 0 26.4449 26.2241)"/>
</clipPath>
</defs>
</svg>
