<svg width="24" height="24" viewBox="0 0 24 24" fill="none" xmlns="http://www.w3.org/2000/svg">
<g id="Iconly/Bold/Call">
<g id="Call">
<path id="Call_2" d="M2.60113 16.6941C3.15628 16.1261 5.55894 14.2161 6.15511 14.0911C6.81829 13.9511 7.34344 14.2561 7.80756 14.5231C8.2847 14.7981 8.69581 15.0361 9.21395 14.8481C11.8697 13.7641 13.7662 11.8682 14.8465 9.22321C15.0376 8.69721 14.8005 8.28422 14.5254 7.80723C14.2583 7.34424 13.9573 6.81824 14.0943 6.15526C14.2183 5.55927 16.1279 3.1573 16.697 2.60231C17.0731 2.23632 17.4572 2.03432 17.8503 2.00132C19.3337 1.93932 21.1662 4.07529 21.4573 4.54428C22.1855 5.54727 22.1805 6.87824 21.4443 8.49422C19.6718 12.8341 12.896 19.61 8.50476 21.436C7.69553 21.812 6.95433 22 6.28914 22C5.63696 22 5.0578 21.819 4.55967 21.461C4.18456 21.247 1.94695 19.349 2.00096 17.8381C2.03297 17.4521 2.23503 17.0681 2.60113 16.6941Z" fill="#26282E"/>
</g>
</g>
</svg>
