<svg width="50" height="50" viewBox="0 0 50 50" fill="none" xmlns="http://www.w3.org/2000/svg">
<rect width="50" height="50" rx="10" fill="#5DB646" fill-opacity="0.15"/>
<g clip-path="url(#clip0_48_28411)">
<path d="M18 32H24V34H20C19.7348 34 19.4804 34.1053 19.2929 34.2929C19.1053 34.4804 19 34.7348 19 35C19 35.2652 19.1053 35.5196 19.2929 35.7071C19.4804 35.8946 19.7348 36 20 36H30C30.2652 36 30.5195 35.8946 30.7071 35.7071C30.8946 35.5196 31 35.2652 31 35C31 34.7348 30.8946 34.4804 30.7071 34.2929C30.5195 34.1053 30.2652 34 30 34H26V32H32C33.1522 31.9985 34.2687 31.5999 35.1612 30.8713C36.0538 30.1427 36.6679 29.1286 36.9 28H13.1C13.3321 29.1286 13.9462 30.1427 14.8387 30.8713C15.7313 31.5999 16.8478 31.9985 18 32V32Z" fill="#5DB646"/>
<path d="M32 13.9998H18C16.6744 14.0014 15.4036 14.5287 14.4662 15.4661C13.5289 16.4034 13.0016 17.6743 13 18.9998V25.9998H37V18.9998C36.9984 17.6743 36.4711 16.4034 35.5338 15.4661C34.5964 14.5287 33.3256 14.0014 32 13.9998V13.9998Z" fill="#5DB646"/>
</g>
<defs>
<clipPath id="clip0_48_28411">
<rect width="24" height="24" fill="white" transform="translate(13 13)"/>
</clipPath>
</defs>
</svg>
