<svg width="50" height="50" viewBox="0 0 50 50" fill="none" xmlns="http://www.w3.org/2000/svg">
<rect width="50" height="50" rx="10" fill="#43A2F3" fill-opacity="0.15"/>
<g clip-path="url(#clip0_48_28424)">
<path d="M27.7618 24.5869C27.2151 24.8981 26.6191 25.1132 25.9998 25.2229V36.8739C26.5268 36.7713 27.0335 36.5831 27.4998 36.3169L33.5267 32.8379C34.2859 32.3977 34.9163 31.7661 35.355 31.0062C35.7936 30.2462 36.0253 29.3844 36.0267 28.5069V21.5469C36.0235 21.0127 35.9341 20.4825 35.7617 19.9769L27.7618 24.5869Z" fill="#43A2F3"/>
<path d="M23.242 22.8569C23.7775 23.165 24.3846 23.3271 25.0025 23.3271C25.6203 23.3271 26.2274 23.165 26.763 22.8569L34.763 18.2469C34.4086 17.8398 33.9905 17.493 33.525 17.2199L27.5 13.7369C26.7394 13.2995 25.8773 13.0694 25 13.0694C24.1226 13.0694 23.2605 13.2995 22.5 13.7369L16.4729 17.2169C16.024 17.4798 15.6191 17.8115 15.2729 18.1999L23.242 22.8569Z" fill="#43A2F3"/>
<path d="M23.9999 25.2232C23.3801 25.1138 22.7838 24.8986 22.2369 24.5872L14.2569 19.9232C14.0722 20.4449 13.9762 20.9938 13.9729 21.5472V28.5072C13.9744 29.3847 14.206 30.2465 14.6447 31.0065C15.0834 31.7665 15.7138 32.3981 16.4729 32.8382L22.4999 36.3172C22.9662 36.5835 23.4729 36.7716 23.9999 36.8742V25.2232Z" fill="#43A2F3"/>
</g>
<defs>
<clipPath id="clip0_48_28424">
<rect width="24" height="24" fill="white" transform="translate(13 13)"/>
</clipPath>
</defs>
</svg>
