<svg width="50" height="50" viewBox="0 0 50 50" fill="none" xmlns="http://www.w3.org/2000/svg">
<rect width="50" height="50" rx="10" fill="#BE437E" fill-opacity="0.15"/>
<g clip-path="url(#clip0_48_28404)">
<path d="M22 13H18C16.6739 13 15.4021 13.5268 14.4645 14.4645C13.5268 15.4021 13 16.6739 13 18L13 32C13 32.6566 13.1293 33.3068 13.3806 33.9134C13.6319 34.52 14.0002 35.0712 14.4645 35.5355C15.4021 36.4732 16.6739 37 18 37H27V18C27 17.3434 26.8707 16.6932 26.6194 16.0866C26.3681 15.48 25.9998 14.9288 25.5355 14.4645C25.0712 14.0002 24.52 13.6319 23.9134 13.3806C23.3068 13.1293 22.6566 13 22 13V13ZM18 32H17C16.7348 32 16.4804 31.8946 16.2929 31.7071C16.1054 31.5196 16 31.2652 16 31C16 30.7348 16.1054 30.4804 16.2929 30.2929C16.4804 30.1054 16.7348 30 17 30H18C18.2652 30 18.5196 30.1054 18.7071 30.2929C18.8946 30.4804 19 30.7348 19 31C19 31.2652 18.8946 31.5196 18.7071 31.7071C18.5196 31.8946 18.2652 32 18 32ZM18 28H17C16.7348 28 16.4804 27.8946 16.2929 27.7071C16.1054 27.5196 16 27.2652 16 27C16 26.7348 16.1054 26.4804 16.2929 26.2929C16.4804 26.1054 16.7348 26 17 26H18C18.2652 26 18.5196 26.1054 18.7071 26.2929C18.8946 26.4804 19 26.7348 19 27C19 27.2652 18.8946 27.5196 18.7071 27.7071C18.5196 27.8946 18.2652 28 18 28ZM18 24H17C16.7348 24 16.4804 23.8946 16.2929 23.7071C16.1054 23.5196 16 23.2652 16 23C16 22.7348 16.1054 22.4804 16.2929 22.2929C16.4804 22.1054 16.7348 22 17 22H18C18.2652 22 18.5196 22.1054 18.7071 22.2929C18.8946 22.4804 19 22.7348 19 23C19 23.2652 18.8946 23.5196 18.7071 23.7071C18.5196 23.8946 18.2652 24 18 24ZM18 20H17C16.7348 20 16.4804 19.8946 16.2929 19.7071C16.1054 19.5196 16 19.2652 16 19C16 18.7348 16.1054 18.4804 16.2929 18.2929C16.4804 18.1054 16.7348 18 17 18H18C18.2652 18 18.5196 18.1054 18.7071 18.2929C18.8946 18.4804 19 18.7348 19 19C19 19.2652 18.8946 19.5196 18.7071 19.7071C18.5196 19.8946 18.2652 20 18 20ZM23 32H22C21.7348 32 21.4804 31.8946 21.2929 31.7071C21.1054 31.5196 21 31.2652 21 31C21 30.7348 21.1054 30.4804 21.2929 30.2929C21.4804 30.1054 21.7348 30 22 30H23C23.2652 30 23.5196 30.1054 23.7071 30.2929C23.8946 30.4804 24 30.7348 24 31C24 31.2652 23.8946 31.5196 23.7071 31.7071C23.5196 31.8946 23.2652 32 23 32ZM23 28H22C21.7348 28 21.4804 27.8946 21.2929 27.7071C21.1054 27.5196 21 27.2652 21 27C21 26.7348 21.1054 26.4804 21.2929 26.2929C21.4804 26.1054 21.7348 26 22 26H23C23.2652 26 23.5196 26.1054 23.7071 26.2929C23.8946 26.4804 24 26.7348 24 27C24 27.2652 23.8946 27.5196 23.7071 27.7071C23.5196 27.8946 23.2652 28 23 28ZM23 24H22C21.7348 24 21.4804 23.8946 21.2929 23.7071C21.1054 23.5196 21 23.2652 21 23C21 22.7348 21.1054 22.4804 21.2929 22.2929C21.4804 22.1054 21.7348 22 22 22H23C23.2652 22 23.5196 22.1054 23.7071 22.2929C23.8946 22.4804 24 22.7348 24 23C24 23.2652 23.8946 23.5196 23.7071 23.7071C23.5196 23.8946 23.2652 24 23 24ZM23 20H22C21.7348 20 21.4804 19.8946 21.2929 19.7071C21.1054 19.5196 21 19.2652 21 19C21 18.7348 21.1054 18.4804 21.2929 18.2929C21.4804 18.1054 21.7348 18 22 18H23C23.2652 18 23.5196 18.1054 23.7071 18.2929C23.8946 18.4804 24 18.7348 24 19C24 19.2652 23.8946 19.5196 23.7071 19.7071C23.5196 19.8946 23.2652 20 23 20ZM32 18H29V37H32C33.3256 36.9984 34.5964 36.4711 35.5338 35.5338C36.4711 34.5964 36.9984 33.3256 37 32V23C36.9984 21.6744 36.4711 20.4036 35.5338 19.4662C34.5964 18.5289 33.3256 18.0016 32 18V18ZM33 32C32.8022 32 32.6089 31.9414 32.4444 31.8315C32.28 31.7216 32.1518 31.5654 32.0761 31.3827C32.0004 31.2 31.9806 30.9989 32.0192 30.8049C32.0578 30.6109 32.153 30.4327 32.2929 30.2929C32.4327 30.153 32.6109 30.0578 32.8049 30.0192C32.9989 29.9806 33.2 30.0004 33.3827 30.0761C33.5654 30.1518 33.7216 30.28 33.8315 30.4444C33.9414 30.6089 34 30.8022 34 31C34 31.2652 33.8946 31.5196 33.7071 31.7071C33.5196 31.8946 33.2652 32 33 32ZM33 28C32.8022 28 32.6089 27.9414 32.4444 27.8315C32.28 27.7216 32.1518 27.5654 32.0761 27.3827C32.0004 27.2 31.9806 26.9989 32.0192 26.8049C32.0578 26.6109 32.153 26.4327 32.2929 26.2929C32.4327 26.153 32.6109 26.0578 32.8049 26.0192C32.9989 25.9806 33.2 26.0004 33.3827 26.0761C33.5654 26.1518 33.7216 26.28 33.8315 26.4444C33.9414 26.6089 34 26.8022 34 27C34 27.2652 33.8946 27.5196 33.7071 27.7071C33.5196 27.8946 33.2652 28 33 28ZM33 24C32.8022 24 32.6089 23.9414 32.4444 23.8315C32.28 23.7216 32.1518 23.5654 32.0761 23.3827C32.0004 23.2 31.9806 22.9989 32.0192 22.8049C32.0578 22.6109 32.153 22.4327 32.2929 22.2929C32.4327 22.153 32.6109 22.0578 32.8049 22.0192C32.9989 21.9806 33.2 22.0004 33.3827 22.0761C33.5654 22.1518 33.7216 22.28 33.8315 22.4444C33.9414 22.6089 34 22.8022 34 23C34 23.2652 33.8946 23.5196 33.7071 23.7071C33.5196 23.8946 33.2652 24 33 24Z" fill="#BE437E"/>
</g>
<defs>
<clipPath id="clip0_48_28404">
<rect width="24" height="24" fill="white" transform="translate(13 13)"/>
</clipPath>
</defs>
</svg>
