<svg width="50" height="50" viewBox="0 0 50 50" fill="none" xmlns="http://www.w3.org/2000/svg">
<rect width="50" height="50" rx="10" fill="#5DB646" fill-opacity="0.15"/>
<g clip-path="url(#clip0_48_28394)">
<path d="M25 27.9918C23.3432 27.9918 22 29.3349 22 30.9918V36.9918H28V30.9918C28 29.3349 26.6568 27.9918 25 27.9918Z" fill="#5DB646"/>
<path d="M30 30.9922V36.9922H34C35.6568 36.9922 37 35.649 37 33.9922V24.8712C37.0002 24.3517 36.7983 23.8525 36.437 23.4792L27.939 14.2922C26.4396 12.6698 23.9089 12.5702 22.2865 14.0697C22.2095 14.1409 22.1352 14.2151 22.064 14.2922L13.581 23.4762C13.2087 23.851 12.9999 24.3579 13 24.8862V33.9922C13 35.649 14.3432 36.9922 16 36.9922H20V30.9922C20.0187 28.2654 22.2203 26.0386 24.8784 25.9745C27.6255 25.9082 29.9791 28.1729 30 30.9922Z" fill="#5DB646"/>
<path d="M25 27.9918C23.3432 27.9918 22 29.3349 22 30.9918V36.9918H28V30.9918C28 29.3349 26.6568 27.9918 25 27.9918Z" fill="#5DB646"/>
</g>
<defs>
<clipPath id="clip0_48_28394">
<rect width="24" height="24" fill="white" transform="translate(13 13)"/>
</clipPath>
</defs>
</svg>
