<svg width="50" height="50" viewBox="0 0 50 50" fill="none" xmlns="http://www.w3.org/2000/svg">
<rect width="50" height="50" rx="10" fill="#43A2F3" fill-opacity="0.15"/>
<g clip-path="url(#clip0_48_28387)">
<path d="M28.7461 31.2543C28.7461 29.7543 27.7151 27.7043 25.8461 25.4813C25.7427 25.3579 25.6131 25.259 25.4668 25.1917C25.3205 25.1244 25.1611 25.0905 25.0001 25.0923V25.0923C24.8379 25.0915 24.6775 25.1261 24.53 25.1936C24.3825 25.2612 24.2515 25.36 24.1461 25.4833C22.1001 27.8803 21.1001 30.0003 21.2731 31.6253C21.3412 32.139 21.5174 32.6326 21.79 33.0733C22.0627 33.5141 22.4257 33.892 22.8551 34.1823C23.4625 34.6803 24.2153 34.9674 25.0001 35.0003C25.9933 34.9992 26.9455 34.6042 27.6477 33.9019C28.35 33.1996 28.745 32.2474 28.7461 31.2543Z" fill="#43A2F3"/>
<path d="M29.6289 15.9005C28.8429 15.2325 28.0179 14.5325 27.1779 13.7685C26.8594 13.4793 26.4815 13.2632 26.0708 13.1354C25.66 13.0076 25.2263 12.9711 24.7999 13.0285C24.3867 13.0832 23.9905 13.228 23.6394 13.4526C23.2883 13.6772 22.9908 13.9762 22.7679 14.3284C21.5763 16.3203 20.7335 18.5009 20.2759 20.7765C20.0969 20.5172 19.9378 20.2448 19.7999 19.9615C19.6584 19.6632 19.4452 19.4047 19.1795 19.2089C18.9137 19.0131 18.6036 18.8861 18.2769 18.8392C17.9501 18.7924 17.6168 18.8272 17.3068 18.9405C16.9967 19.0537 16.7195 19.242 16.4999 19.4885C14.8232 21.2028 13.8938 23.5115 13.9149 25.9095C13.8917 28.3589 14.6883 30.7457 16.178 32.6902C17.6677 34.6347 19.7649 36.0252 22.1359 36.6404C23.0438 36.8689 23.9758 36.9871 24.9119 36.9925C23.7157 36.9479 22.5658 36.5178 21.6339 35.7665C20.9883 35.3121 20.4455 34.727 20.0406 34.0493C19.6358 33.3716 19.378 32.6163 19.2839 31.8325C19.0539 29.6225 20.1769 27.0495 22.6219 24.1855C22.9152 23.8416 23.2799 23.5657 23.6905 23.377C24.1012 23.1883 24.548 23.0912 24.9999 23.0925H25.0099C25.4605 23.0928 25.9057 23.1914 26.3143 23.3814C26.7229 23.5714 27.0852 23.8482 27.3759 24.1925C28.9139 26.0195 30.7489 28.7275 30.7489 31.2535C30.7467 32.7092 30.1923 34.1098 29.1977 35.1727C28.2031 36.2357 26.8423 36.8817 25.3899 36.9804C28.2616 36.8879 30.9844 35.6812 32.9817 33.6158C34.979 31.5504 36.0938 28.7886 36.0899 25.9155C36.0849 21.3854 33.0929 18.8455 29.6289 15.9005Z" fill="#43A2F3"/>
</g>
<defs>
<clipPath id="clip0_48_28387">
<rect width="24" height="24" fill="white" transform="translate(13 13)"/>
</clipPath>
</defs>
</svg>
