<svg width="14" height="14" viewBox="0 0 14 14" fill="none" xmlns="http://www.w3.org/2000/svg">
<path d="M10.5002 7C10.4973 6.6931 10.3737 6.39969 10.156 6.18333L7.6535 3.675C7.5442 3.56635 7.39635 3.50537 7.24225 3.50537C7.08814 3.50537 6.94029 3.56635 6.831 3.675C6.77632 3.72923 6.73292 3.79375 6.70331 3.86483C6.67369 3.93591 6.65845 4.01216 6.65845 4.08917C6.65845 4.16617 6.67369 4.24242 6.70331 4.3135C6.73292 4.38459 6.77632 4.4491 6.831 4.50333L8.75016 6.41666H2.91683C2.76212 6.41666 2.61375 6.47812 2.50435 6.58752C2.39495 6.69691 2.3335 6.84529 2.3335 7C2.3335 7.15471 2.39495 7.30308 2.50435 7.41247C2.61375 7.52187 2.76212 7.58333 2.91683 7.58333H8.75016L6.831 9.50249C6.72115 9.61156 6.65914 9.7598 6.65859 9.9146C6.65804 10.0694 6.71901 10.2181 6.82808 10.3279C6.93715 10.4378 7.08539 10.4998 7.24018 10.5003C7.39498 10.5009 7.54365 10.4399 7.6535 10.3308L10.156 7.82249C10.3751 7.60471 10.4989 7.30892 10.5002 7Z" fill="#43A2F3"/>
</svg>
